<svg width="32" height="32" viewBox="0 0 32 32" fill="none" xmlns="http://www.w3.org/2000/svg">
<g id="DiscordLogo">
<path id="Vector" d="M12 19.5C12.8284 19.5 13.5 18.8284 13.5 18C13.5 17.1716 12.8284 16.5 12 16.5C11.1716 16.5 10.5 17.1716 10.5 18C10.5 18.8284 11.1716 19.5 12 19.5Z" fill="#858584"/>
<path id="Vector_2" d="M20 19.5C20.8284 19.5 21.5 18.8284 21.5 18C21.5 17.1716 20.8284 16.5 20 16.5C19.1716 16.5 18.5 17.1716 18.5 18C18.5 18.8284 19.1716 19.5 20 19.5Z" fill="#858584"/>
<path id="Vector (Stroke)" fill-rule="evenodd" clip-rule="evenodd" d="M15.9917 10.0006C13.8239 9.98454 11.6668 10.3065 9.59816 10.9548C9.07115 11.12 8.51003 10.8267 8.34486 10.2997C8.17969 9.77266 8.47302 9.21154 9.00003 9.04637C11.2646 8.33661 13.6259 7.98379 15.9991 8.00057C18.3722 7.98379 20.7335 8.33661 22.9982 9.04637C23.5252 9.21154 23.8185 9.77266 23.6533 10.2997C23.4882 10.8267 22.927 11.12 22.4 10.9548C20.3314 10.3065 18.1743 9.98454 16.0065 10.0006H15.9917Z" fill="#858584"/>
<path id="Vector (Stroke)_2" fill-rule="evenodd" clip-rule="evenodd" d="M8.34486 21.7012C8.51003 21.1742 9.07115 20.8809 9.59816 21.046C11.6668 21.6944 13.8239 22.0163 15.9917 22.0003H16.0065C18.1743 22.0163 20.3314 21.6944 22.4 21.046C22.927 20.8809 23.4882 21.1742 23.6533 21.7012C23.8185 22.2282 23.5252 22.7893 22.9982 22.9545C20.7335 23.6643 18.3722 24.0171 15.9991 24.0003C13.6259 24.0171 11.2646 23.6643 9.00003 22.9545C8.47302 22.7893 8.17969 22.2282 8.34486 21.7012Z" fill="#858584"/>
<path id="Vector (Stroke)_3" fill-rule="evenodd" clip-rule="evenodd" d="M20.2195 4.81024C20.6499 4.56754 21.1546 4.4917 21.6373 4.59714C22.9549 4.88268 24.2448 5.28326 25.4924 5.79426C25.7732 5.90254 26.0254 6.07398 26.2294 6.29541C26.4357 6.5192 26.587 6.78788 26.6715 7.08017L30.9074 21.2246C31.0178 21.593 31.0204 21.9855 30.9147 22.3554C30.809 22.7253 30.5995 23.0571 30.3111 23.3116L30.3059 23.3161C28.2385 25.1151 25.4371 26.4767 22.2551 27.2567C21.8132 27.3694 21.3457 27.3256 20.9322 27.1326C20.5205 26.9404 20.1877 26.6122 19.9898 26.2035L18.4816 23.2119C18.2329 22.7188 18.4311 22.1174 18.9243 21.8688C19.4175 21.6202 20.0188 21.8184 20.2674 22.3115L21.7799 25.3115L21.781 25.3137C24.7189 24.5933 27.2131 23.3562 28.9931 21.8073L29.6495 22.5617L28.9879 21.8119C28.9897 21.8103 28.991 21.8082 28.9917 21.8059C28.9923 21.8036 28.9923 21.8012 28.9916 21.7989L24.7555 7.65368C24.752 7.65227 24.7485 7.65084 24.7449 7.64939C23.602 7.18051 22.4201 6.81314 21.2127 6.55155L21.2106 6.55107C21.2076 6.55042 21.2044 6.55089 21.2017 6.5524C21.1993 6.55375 21.1975 6.55587 21.1964 6.5584L20.2115 9.53807C20.0381 10.0625 19.4725 10.347 18.9481 10.1737C18.4238 10.0004 18.1392 9.43476 18.3125 8.91038L19.3029 5.91419C19.4624 5.44609 19.7887 5.05312 20.2195 4.81024Z" fill="#858584"/>
<path id="Vector (Stroke)_4" fill-rule="evenodd" clip-rule="evenodd" d="M10.7982 6.5524C10.7955 6.55089 10.7924 6.55042 10.7894 6.55107L10.7872 6.55155C9.57988 6.81314 8.39792 7.18051 7.25502 7.64939C7.25149 7.65084 7.24795 7.65227 7.24441 7.65368L3.00842 21.7986C3.00774 21.8009 3.00764 21.8036 3.00829 21.8059C3.00888 21.808 3.01 21.8099 3.01152 21.8114C4.79121 23.3583 7.2836 24.5939 10.2189 25.3137L10.22 25.3115L11.7325 22.3115C11.9812 21.8184 12.5825 21.6202 13.0756 21.8688C13.5688 22.1174 13.767 22.7188 13.5184 23.2119L12.0101 26.2035C11.8123 26.6122 11.4795 26.9404 11.0677 27.1326C10.6542 27.3256 10.1868 27.3694 9.74481 27.2567C6.56287 26.4767 3.76151 25.1151 1.69404 23.3161L1.68886 23.3116C1.40039 23.0571 1.19093 22.7252 1.08525 22.3554C0.979591 21.9856 0.982107 21.5932 1.09249 21.2248C1.09246 21.2249 1.09252 21.2248 1.09249 21.2248L5.32839 7.08019C5.41291 6.78789 5.56426 6.51921 5.77051 6.29541C5.97457 6.07398 6.22679 5.90254 6.5076 5.79426C7.75546 5.28312 9.04577 4.88246 10.3637 4.5969C10.8461 4.49181 11.3504 4.56772 11.7805 4.81024C12.2113 5.05312 12.5375 5.4461 12.697 5.9142L12.7 5.92287L13.6874 8.91038C13.8608 9.43476 13.5762 10.0004 13.0518 10.1737C12.5274 10.347 11.9618 10.0624 11.7885 9.53807L10.8036 6.55839C10.8025 6.55586 10.8006 6.55375 10.7982 6.5524Z" fill="#858584"/>
<path id="Vector_3" d="M12 19.5C12.8284 19.5 13.5 18.8284 13.5 18C13.5 17.1716 12.8284 16.5 12 16.5C11.1716 16.5 10.5 17.1716 10.5 18C10.5 18.8284 11.1716 19.5 12 19.5Z" fill="#858584"/>
<path id="Vector_4" d="M20 19.5C20.8284 19.5 21.5 18.8284 21.5 18C21.5 17.1716 20.8284 16.5 20 16.5C19.1716 16.5 18.5 17.1716 18.5 18C18.5 18.8284 19.1716 19.5 20 19.5Z" fill="#858584"/>
<path id="Vector (Stroke)_5" fill-rule="evenodd" clip-rule="evenodd" d="M15.9917 10.0006C13.8239 9.98454 11.6668 10.3065 9.59816 10.9548C9.07115 11.12 8.51003 10.8267 8.34486 10.2997C8.17969 9.77266 8.47302 9.21154 9.00003 9.04637C11.2646 8.33661 13.6259 7.98379 15.9991 8.00057C18.3722 7.98379 20.7335 8.33661 22.9982 9.04637C23.5252 9.21154 23.8185 9.77266 23.6533 10.2997C23.4882 10.8267 22.927 11.12 22.4 10.9548C20.3314 10.3065 18.1743 9.98454 16.0065 10.0006H15.9917Z" fill="#858584"/>
<path id="Vector (Stroke)_6" fill-rule="evenodd" clip-rule="evenodd" d="M8.34486 21.7012C8.51003 21.1742 9.07115 20.8809 9.59816 21.046C11.6668 21.6944 13.8239 22.0163 15.9917 22.0003H16.0065C18.1743 22.0163 20.3314 21.6944 22.4 21.046C22.927 20.8809 23.4882 21.1742 23.6533 21.7012C23.8185 22.2282 23.5252 22.7893 22.9982 22.9545C20.7335 23.6643 18.3722 24.0171 15.9991 24.0003C13.6259 24.0171 11.2646 23.6643 9.00003 22.9545C8.47302 22.7893 8.17969 22.2282 8.34486 21.7012Z" fill="#858584"/>
<path id="Vector (Stroke)_7" fill-rule="evenodd" clip-rule="evenodd" d="M20.2195 4.81024C20.6499 4.56754 21.1546 4.4917 21.6373 4.59714C22.9549 4.88268 24.2448 5.28326 25.4924 5.79426C25.7732 5.90254 26.0254 6.07398 26.2294 6.29541C26.4357 6.5192 26.587 6.78788 26.6715 7.08017L30.9074 21.2246C31.0178 21.593 31.0204 21.9855 30.9147 22.3554C30.809 22.7253 30.5995 23.0571 30.3111 23.3116L30.3059 23.3161C28.2385 25.1151 25.4371 26.4767 22.2551 27.2567C21.8132 27.3694 21.3457 27.3256 20.9322 27.1326C20.5205 26.9404 20.1877 26.6122 19.9898 26.2035L18.4816 23.2119C18.2329 22.7188 18.4311 22.1174 18.9243 21.8688C19.4175 21.6202 20.0188 21.8184 20.2674 22.3115L21.7799 25.3115L21.781 25.3137C24.7189 24.5933 27.2131 23.3562 28.9931 21.8073L29.6495 22.5617L28.9879 21.8119C28.9897 21.8103 28.991 21.8082 28.9917 21.8059C28.9923 21.8036 28.9923 21.8012 28.9916 21.7989L24.7555 7.65368C24.752 7.65227 24.7485 7.65084 24.7449 7.64939C23.602 7.18051 22.4201 6.81314 21.2127 6.55155L21.2106 6.55107C21.2076 6.55042 21.2044 6.55089 21.2017 6.5524C21.1993 6.55375 21.1975 6.55587 21.1964 6.5584L20.2115 9.53807C20.0381 10.0625 19.4725 10.347 18.9481 10.1737C18.4238 10.0004 18.1392 9.43476 18.3125 8.91038L19.3029 5.91419C19.4624 5.44609 19.7887 5.05312 20.2195 4.81024Z" fill="#858584"/>
<path id="Vector (Stroke)_8" fill-rule="evenodd" clip-rule="evenodd" d="M10.7982 6.5524C10.7955 6.55089 10.7924 6.55042 10.7894 6.55107L10.7872 6.55155C9.57988 6.81314 8.39792 7.18051 7.25502 7.64939C7.25149 7.65084 7.24795 7.65227 7.24441 7.65368L3.00842 21.7986C3.00774 21.8009 3.00764 21.8036 3.00829 21.8059C3.00888 21.808 3.01 21.8099 3.01152 21.8114C4.79121 23.3583 7.2836 24.5939 10.2189 25.3137L10.22 25.3115L11.7325 22.3115C11.9812 21.8184 12.5825 21.6202 13.0756 21.8688C13.5688 22.1174 13.767 22.7188 13.5184 23.2119L12.0101 26.2035C11.8123 26.6122 11.4795 26.9404 11.0677 27.1326C10.6542 27.3256 10.1868 27.3694 9.74481 27.2567C6.56287 26.4767 3.76151 25.1151 1.69404 23.3161L1.68886 23.3116C1.40039 23.0571 1.19093 22.7252 1.08525 22.3554C0.979591 21.9856 0.982107 21.5932 1.09249 21.2248C1.09246 21.2249 1.09252 21.2248 1.09249 21.2248L5.32839 7.08019C5.41291 6.78789 5.56426 6.51921 5.77051 6.29541C5.97457 6.07398 6.22679 5.90254 6.5076 5.79426C7.75546 5.28312 9.04577 4.88246 10.3637 4.5969C10.8461 4.49181 11.3504 4.56772 11.7805 4.81024C12.2113 5.05312 12.5375 5.4461 12.697 5.9142L12.7 5.92287L13.6874 8.91038C13.8608 9.43476 13.5762 10.0004 13.0518 10.1737C12.5274 10.347 11.9618 10.0624 11.7885 9.53807L10.8036 6.55839C10.8025 6.55586 10.8006 6.55375 10.7982 6.5524Z" fill="#858584"/>
</g>
</svg>
