<svg width="40" height="38" viewBox="0 0 40 38" fill="none" xmlns="http://www.w3.org/2000/svg">
<g id="metamask">
<path id="Vector" d="M38.008 0.5625L22.4001 12.1547L25.2864 5.31544L38.008 0.5625Z" fill="#E2761B" stroke="#E2761B" stroke-width="0.3125" stroke-linecap="round" stroke-linejoin="round"/>
<g id="Group">
<path id="Vector_2" d="M1.97632 0.5625L17.4587 12.2645L14.7136 5.31544L1.97632 0.5625Z" fill="#E4761B" stroke="#E4761B" stroke-width="0.3125" stroke-linecap="round" stroke-linejoin="round"/>
<path id="Vector_3" d="M32.392 27.4326L28.2351 33.8012L37.1292 36.2483L39.6861 27.5738L32.392 27.4326Z" fill="#E4761B" stroke="#E4761B" stroke-width="0.3125" stroke-linecap="round" stroke-linejoin="round"/>
<path id="Vector_4" d="M0.329102 27.5738L2.87028 36.2483L11.7644 33.8012L7.60753 27.4326L0.329102 27.5738Z" fill="#E4761B" stroke="#E4761B" stroke-width="0.3125" stroke-linecap="round" stroke-linejoin="round"/>
<path id="Vector_5" d="M11.2626 16.6723L8.78418 20.4213L17.6156 20.8134L17.3018 11.3232L11.2626 16.6723Z" fill="#E4761B" stroke="#E4761B" stroke-width="0.3125" stroke-linecap="round" stroke-linejoin="round"/>
<path id="Vector_6" d="M28.7215 16.6727L22.6038 11.2139L22.3999 20.8139L31.2156 20.4217L28.7215 16.6727Z" fill="#E4761B" stroke="#E4761B" stroke-width="0.3125" stroke-linecap="round" stroke-linejoin="round"/>
<path id="Vector_7" d="M11.7644 33.8014L17.0664 31.2132L12.486 27.6367L11.7644 33.8014Z" fill="#E4761B" stroke="#E4761B" stroke-width="0.3125" stroke-linecap="round" stroke-linejoin="round"/>
<path id="Vector_8" d="M22.9175 31.2132L28.2351 33.8014L27.4979 27.6367L22.9175 31.2132Z" fill="#E4761B" stroke="#E4761B" stroke-width="0.3125" stroke-linecap="round" stroke-linejoin="round"/>
</g>
<g id="Group_2">
<path id="Vector_9" d="M28.2354 33.8021L22.9177 31.2139L23.3413 34.6805L23.2942 36.1394L28.2354 33.8021Z" fill="#D7C1B3" stroke="#D7C1B3" stroke-width="0.3125" stroke-linecap="round" stroke-linejoin="round"/>
<path id="Vector_10" d="M11.7646 33.8021L16.7058 36.1394L16.6745 34.6805L17.0666 31.2139L11.7646 33.8021Z" fill="#D7C1B3" stroke="#D7C1B3" stroke-width="0.3125" stroke-linecap="round" stroke-linejoin="round"/>
</g>
<path id="Vector_11" d="M16.7844 25.3466L12.3608 24.0446L15.4824 22.6172L16.7844 25.3466Z" fill="#233447" stroke="#233447" stroke-width="0.3125" stroke-linecap="round" stroke-linejoin="round"/>
<path id="Vector_12" d="M23.2002 25.3466L24.5022 22.6172L27.6394 24.0446L23.2002 25.3466Z" fill="#233447" stroke="#233447" stroke-width="0.3125" stroke-linecap="round" stroke-linejoin="round"/>
<g id="Group_3">
<path id="Vector_13" d="M11.7648 33.8012L12.5177 27.4326L7.60791 27.5738L11.7648 33.8012Z" fill="#CD6116" stroke="#CD6116" stroke-width="0.3125" stroke-linecap="round" stroke-linejoin="round"/>
<path id="Vector_14" d="M27.4824 27.4326L28.2354 33.8012L32.3922 27.5738L27.4824 27.4326Z" fill="#CD6116" stroke="#CD6116" stroke-width="0.3125" stroke-linecap="round" stroke-linejoin="round"/>
<path id="Vector_15" d="M31.2158 20.4209L22.4001 20.8131L23.2158 25.3464L24.5178 22.617L27.655 24.0444L31.2158 20.4209Z" fill="#CD6116" stroke="#CD6116" stroke-width="0.3125" stroke-linecap="round" stroke-linejoin="round"/>
<path id="Vector_16" d="M12.3609 24.0444L15.4981 22.617L16.7844 25.3464L17.6158 20.8131L8.78442 20.4209L12.3609 24.0444Z" fill="#CD6116" stroke="#CD6116" stroke-width="0.3125" stroke-linecap="round" stroke-linejoin="round"/>
</g>
<g id="Group_4">
<path id="Vector_17" d="M8.78442 20.4209L12.4864 27.6366L12.3609 24.0444L8.78442 20.4209Z" fill="#E4751F" stroke="#E4751F" stroke-width="0.3125" stroke-linecap="round" stroke-linejoin="round"/>
<path id="Vector_18" d="M27.6552 24.0444L27.4983 27.6366L31.2159 20.4209L27.6552 24.0444Z" fill="#E4751F" stroke="#E4751F" stroke-width="0.3125" stroke-linecap="round" stroke-linejoin="round"/>
<path id="Vector_19" d="M17.616 20.8135L16.7847 25.3468L17.82 30.6958L18.0553 23.6527L17.616 20.8135Z" fill="#E4751F" stroke="#E4751F" stroke-width="0.3125" stroke-linecap="round" stroke-linejoin="round"/>
<path id="Vector_20" d="M22.4003 20.8135L21.9768 23.637L22.165 30.6958L23.216 25.3468L22.4003 20.8135Z" fill="#E4751F" stroke="#E4751F" stroke-width="0.3125" stroke-linecap="round" stroke-linejoin="round"/>
</g>
<path id="Vector_21" d="M23.2158 25.3469L22.1648 30.6959L22.9177 31.2135L27.4981 27.6371L27.655 24.0449L23.2158 25.3469Z" fill="#F6851B" stroke="#F6851B" stroke-width="0.3125" stroke-linecap="round" stroke-linejoin="round"/>
<path id="Vector_22" d="M12.3608 24.0449L12.4863 27.6371L17.0667 31.2135L17.8197 30.6959L16.7844 25.3469L12.3608 24.0449Z" fill="#F6851B" stroke="#F6851B" stroke-width="0.3125" stroke-linecap="round" stroke-linejoin="round"/>
<path id="Vector_23" d="M23.2941 36.139L23.3411 34.6802L22.949 34.3351H17.0352L16.6745 34.6802L16.7058 36.139L11.7646 33.8018L13.4901 35.2135L16.9882 37.6449H22.996L26.5097 35.2135L28.2352 33.8018L23.2941 36.139Z" fill="#C0AD9E" stroke="#C0AD9E" stroke-width="0.3125" stroke-linecap="round" stroke-linejoin="round"/>
<path id="Vector_24" d="M22.9177 31.2139L22.1648 30.6963H17.8197L17.0667 31.2139L16.6746 34.6806L17.0353 34.3355H22.9491L23.3412 34.6806L22.9177 31.2139Z" fill="#161616" stroke="#161616" stroke-width="0.3125" stroke-linecap="round" stroke-linejoin="round"/>
<g id="Group_5">
<path id="Vector_25" d="M38.6667 12.9076L40.0001 6.5076L38.0079 0.5625L22.9177 11.7625L28.7216 16.6723L36.9256 19.0723L38.7452 16.9547L37.9609 16.39L39.2158 15.2449L38.2432 14.4919L39.4981 13.5351L38.6667 12.9076Z" fill="#763D16" stroke="#763D16" stroke-width="0.3125" stroke-linecap="round" stroke-linejoin="round"/>
<path id="Vector_26" d="M0 6.5076L1.33333 12.9076L0.486275 13.5351L1.74118 14.4919L0.784314 15.2449L2.03922 16.39L1.2549 16.9547L3.05882 19.0723L11.2627 16.6723L17.0667 11.7625L1.97647 0.5625L0 6.5076Z" fill="#763D16" stroke="#763D16" stroke-width="0.3125" stroke-linecap="round" stroke-linejoin="round"/>
</g>
<path id="Vector_27" d="M36.9255 19.0719L28.7216 16.6719L31.2157 20.4209L27.498 27.6366L32.3922 27.5738H39.6863L36.9255 19.0719Z" fill="#F6851B" stroke="#F6851B" stroke-width="0.3125" stroke-linecap="round" stroke-linejoin="round"/>
<path id="Vector_28" d="M11.2627 16.6719L3.05876 19.0719L0.329346 27.5738H7.60778L12.4862 27.6366L8.78425 20.4209L11.2627 16.6719Z" fill="#F6851B" stroke="#F6851B" stroke-width="0.3125" stroke-linecap="round" stroke-linejoin="round"/>
<path id="Vector_29" d="M22.4001 20.8135L22.9178 11.7625L25.3021 5.31543H14.7139L17.0668 11.7625L17.6158 20.8135L17.8041 23.6684L17.8197 30.6958H22.1648L22.1962 23.6684L22.4001 20.8135Z" fill="#F6851B" stroke="#F6851B" stroke-width="0.3125" stroke-linecap="round" stroke-linejoin="round"/>
</g>
</svg>
