<svg width="32" height="33" viewBox="0 0 32 33" fill="none" xmlns="http://www.w3.org/2000/svg">
<path d="M25 22.5V8.5C25.0017 8.10557 24.9252 7.71472 24.775 7.34999C24.6248 6.98527 24.4039 6.65389 24.125 6.37499C23.8461 6.09608 23.5147 5.87517 23.15 5.72499C22.7853 5.57481 22.3944 5.49834 22 5.5H5" stroke="#858584" stroke-width="2" stroke-linecap="round" stroke-linejoin="round"/>
<path d="M13 13.5H21" stroke="#858584" stroke-width="2" stroke-linecap="round" stroke-linejoin="round"/>
<path d="M13 17.5H21" stroke="#858584" stroke-width="2" stroke-linecap="round" stroke-linejoin="round"/>
<path d="M2.7625 10.5C2.43867 10.1374 2.20781 9.70158 2.08977 9.22999C1.97174 8.75841 1.97007 8.2652 2.08492 7.79283C2.19977 7.32046 2.42769 6.88308 2.74907 6.51833C3.07044 6.15358 3.47564 5.87239 3.92979 5.69897C4.38394 5.52555 4.87342 5.46509 5.35612 5.5228C5.83881 5.58051 6.30025 5.75465 6.70072 6.03024C7.10118 6.30583 7.42868 6.67461 7.65501 7.10484C7.88135 7.53507 7.99974 8.01385 8 8.49998V24.5C8.00026 24.9861 8.11865 25.4649 8.34499 25.8951C8.57132 26.3254 8.89882 26.6941 9.29928 26.9697C9.69975 27.2453 10.1612 27.4195 10.6439 27.4772C11.1266 27.5349 11.6161 27.4744 12.0702 27.301C12.5244 27.1276 12.9296 26.8464 13.2509 26.4816C13.5723 26.1169 13.8002 25.6795 13.9151 25.2071C14.0299 24.7348 14.0283 24.2416 13.9102 23.77C13.7922 23.2984 13.5613 22.8626 13.2375 22.5H27.2375C27.6237 22.9317 27.8766 23.466 27.9657 24.0384C28.0548 24.6107 27.9764 25.1967 27.7398 25.7254C27.5031 26.2541 27.1185 26.703 26.6324 27.0179C26.1462 27.3328 25.5792 27.5003 25 27.5H11" stroke="#858584" stroke-width="2" stroke-linecap="round" stroke-linejoin="round"/>
</svg>
