<svg width="32" height="32" viewBox="0 0 32 32" fill="none" xmlns="http://www.w3.org/2000/svg">
<g id="YoutubeLogo">
<path id="Vector (Stroke)" fill-rule="evenodd" clip-rule="evenodd" d="M13.5281 11.1183C13.8533 10.9443 14.2478 10.9634 14.5547 11.168L20.5547 15.168C20.8329 15.3534 21 15.6656 21 16C21 16.3344 20.8329 16.6466 20.5547 16.8321L14.5547 20.8321C14.2478 21.0366 13.8533 21.0557 13.5281 20.8817C13.203 20.7077 13 20.3688 13 20V12C13 11.6312 13.203 11.2923 13.5281 11.1183ZM15 13.8685V18.1315L18.1972 16L15 13.8685Z" fill="#858584"/>
<path id="Vector (Stroke)_2" fill-rule="evenodd" clip-rule="evenodd" d="M15.9985 5.05082L15.9816 5.05078L15.9188 5.05081C15.8643 5.05093 15.785 5.05133 15.6831 5.05241C15.4794 5.05457 15.1856 5.05947 14.8206 5.07043C14.0912 5.09232 13.0746 5.13847 11.9237 5.23563C9.64733 5.42782 6.74928 5.82669 4.51808 6.6792L4.50338 6.68495C4.06511 6.86039 3.6742 7.13637 3.36218 7.49064C3.05016 7.84491 2.82577 8.26755 2.70711 8.72447L2.70614 8.72824C2.39473 9.9468 2 12.2065 2 16.0008C2 19.7952 2.39473 22.0549 2.70614 23.2734L2.70711 23.2772C2.82577 23.7341 3.05016 24.1568 3.36218 24.511C3.6742 24.8653 4.06511 25.1413 4.50338 25.3167L4.51808 25.3225C6.74928 26.175 9.64733 26.5739 11.9237 26.766C13.0746 26.8632 14.0912 26.9094 14.8206 26.9312C15.1856 26.9422 15.4794 26.9471 15.6831 26.9493C15.785 26.9504 15.8643 26.9507 15.9188 26.9509L15.9816 26.9509L15.9985 26.9509H16.0015L16.0184 26.9509L16.0812 26.9509C16.1357 26.9507 16.215 26.9504 16.3169 26.9493C16.5206 26.9471 16.8144 26.9422 17.1794 26.9312C17.9088 26.9094 18.9254 26.8632 20.0763 26.766C22.3527 26.5739 25.2507 26.175 27.4819 25.3225L27.4966 25.3167C27.9349 25.1413 28.3258 24.8653 28.6378 24.511C28.9498 24.1568 29.1742 23.7341 29.2929 23.2772L29.2939 23.2734C29.6053 22.0549 30 19.7952 30 16.0008C30 12.2065 29.6053 9.9468 29.2939 8.72824L29.2929 8.72447C29.1742 8.26755 28.9498 7.84491 28.6378 7.49064C28.3258 7.13637 27.9349 6.86039 27.4966 6.68495L27.4819 6.6792C25.2507 5.82669 22.3527 5.42782 20.0763 5.23563C18.9254 5.13847 17.9088 5.09232 17.1794 5.07043C16.8144 5.05947 16.5206 5.05457 16.3169 5.05241C16.215 5.05133 16.1357 5.05093 16.0812 5.05081L16.0184 5.05078L16.0015 5.05082H15.9985ZM15.9947 24.9509L16.0054 24.9508L16.0086 24.9509L16.0217 24.9509L16.0767 24.9509C16.1259 24.9508 16.1996 24.9504 16.2957 24.9494C16.4877 24.9473 16.7686 24.9427 17.1194 24.9321C17.8216 24.9111 18.8011 24.8666 19.9081 24.7731C22.1441 24.5843 24.8041 24.2028 26.7596 23.4574C26.9044 23.3984 27.0336 23.3066 27.1369 23.1892C27.2414 23.0705 27.3167 22.929 27.3567 22.7761C27.6203 21.7438 28 19.6539 28 16.0008C28 12.3478 27.6203 10.2578 27.3567 9.22562C27.3167 9.07265 27.2414 8.93117 27.1369 8.81251C27.0336 8.69512 26.9044 8.60331 26.7596 8.54424C24.8041 7.79889 22.1441 7.41733 19.9081 7.22854C18.8011 7.13509 17.8216 7.09061 17.1194 7.06953C16.7686 7.059 16.4877 7.05433 16.2957 7.0523C16.1996 7.05128 16.1259 7.05092 16.0767 7.05081L16.0217 7.05078L16.0086 7.05081L16.0058 7.05082L15.9946 7.05088L15.9914 7.05081L15.9783 7.05078L15.9233 7.05081C15.8741 7.05092 15.8004 7.05128 15.7043 7.0523C15.5123 7.05433 15.2314 7.059 14.8806 7.06953C14.1784 7.09061 13.1989 7.13509 12.0919 7.22854C9.8559 7.41733 7.1959 7.79889 5.24039 8.54424C5.09561 8.60331 4.96645 8.69513 4.86306 8.81251C4.75855 8.93117 4.6833 9.07265 4.64331 9.22562C4.37974 10.2578 4 12.3478 4 16.0008C4 19.6539 4.37973 21.7438 4.6433 22.7761C4.68329 22.929 4.75855 23.0705 4.86306 23.1892C4.96645 23.3066 5.09561 23.3984 5.24038 23.4574C7.1959 24.2028 9.8559 24.5843 12.0919 24.7731C13.1989 24.8666 14.1784 24.9111 14.8806 24.9321C15.2314 24.9427 15.5123 24.9473 15.7043 24.9494C15.8004 24.9504 15.8741 24.9508 15.9233 24.9509L15.9783 24.9509L15.9914 24.9509L15.9947 24.9509Z" fill="#858584"/>
</g>
</svg>
